# 
# Wavefront OBJ file
# Converted by the DEEP Exploration Deep Exploration 6.3 x64 6.3.5.8307
# Right Hemisphere, LTD
# http://www.righthemisphere.com/
# 
mtllib 19_stackable.mtl
# object Line01
g Line01
v 0.97713 -0.00583 -0.04427
v 0.97706 -0.04779 -0.04388
v 0.95407 -0.04779 -0.04794
v 0.95414 -0.00583 -0.04832
v 0.97706 -0.04779 -0.04388
v 0.95280 -0.08710 0.09367
v 0.92981 -0.08710 0.08962
v 0.95407 -0.04779 -0.04794
v 0.95280 -0.08710 0.09367
v 0.95280 -0.47272 0.09367
v 0.92981 -0.47272 0.08962
v 0.92981 -0.08710 0.08962
v 0.95280 -0.47272 0.09367
v 0.92848 -0.47272 0.23161
v 0.90549 -0.47272 0.22756
v 0.92981 -0.47272 0.08962
v 0.92848 -0.47272 0.23161
v 0.92848 -0.00583 0.23161
v 0.90549 -0.00583 0.22756
v 0.90549 -0.47272 0.22756
v 0.92848 -0.00583 0.23161
v 0.97713 -0.00583 -0.04427
v 0.95414 -0.00583 -0.04832
v 0.90549 -0.00583 0.22756
v 0.97713 -0.00583 -0.04427
v 0.95280 -0.08710 0.09367
v 0.97706 -0.04779 -0.04388
v 0.92848 -0.00583 0.23161
v 0.92848 -0.47272 0.23161
v 0.95280 -0.47272 0.09367
v 0.95414 -0.00583 -0.04832
v 0.95407 -0.04779 -0.04794
v 0.92981 -0.08710 0.08962
v 0.90549 -0.00583 0.22756
v 0.90549 -0.47272 0.22756
v 0.92981 -0.47272 0.08962
# 36 verticies
vn 0.17364 -0.00929 -0.98477
vn 0.04705 -0.96260 -0.26681
vn 0.17365 0.00000 -0.98481
vn 0.00000 -1.00000 0.00000
vn -0.17365 0.00000 0.98481
vn 0.00000 1.00000 0.00000
vn 0.98481 0.00000 0.17365
vn 0.98481 0.00000 0.17365
vn 0.98481 0.00000 0.17365
vn 0.98481 -0.00000 0.17365
vn 0.98481 0.00000 0.17365
vn -0.98481 -0.00000 -0.17365
vn -0.98481 -0.00000 -0.17365
vn -0.98481 -0.00000 -0.17365
vn -0.98481 0.00000 -0.17365
vn -0.98481 0.00000 -0.17365
# 16 normals
usemtl Explorer_Default
f  1//1 2//1 3//1
f  1//1 3//1 4//1
f  5//2 6//2 7//2
f  5//2 7//2 8//2
f  9//3 10//3 11//3
f  9//3 11//3 12//3
f  13//4 14//4 15//4
f  13//4 15//4 16//4
f  17//5 18//5 19//5
f  17//5 19//5 20//5
f  21//6 22//6 23//6
f  21//6 23//6 24//6
f  25//7 26//8 27//9
f  28//10 26//8 25//7
f  29//11 26//8 28//10
f  29//11 30//11 26//8
f  31//12 32//13 33//14
f  34//15 31//12 33//14
f  35//16 34//15 33//14
f  35//16 33//14 36//16
# object Line03
g Line03
v -0.99095 -0.00583 -0.04183
v -0.99088 -0.04779 -0.04145
v -1.01387 -0.04779 -0.03739
v -1.01394 -0.00583 -0.03778
v -0.99088 -0.04779 -0.04145
v -0.96663 -0.08710 0.09611
v -0.98962 -0.08710 0.10016
v -1.01387 -0.04779 -0.03739
v -0.96663 -0.08710 0.09611
v -0.96663 -0.47272 0.09611
v -0.98962 -0.47272 0.10016
v -0.98962 -0.08710 0.10016
v -0.96663 -0.47272 0.09611
v -0.94230 -0.47272 0.23405
v -0.96529 -0.47272 0.23810
v -0.98962 -0.47272 0.10016
v -0.94230 -0.47272 0.23405
v -0.94230 -0.00583 0.23405
v -0.96529 -0.00583 0.23810
v -0.96529 -0.47272 0.23810
v -0.94230 -0.00583 0.23405
v -0.99095 -0.00583 -0.04183
v -1.01394 -0.00583 -0.03778
v -0.96529 -0.00583 0.23810
v -0.99095 -0.00583 -0.04183
v -0.96663 -0.08710 0.09611
v -0.99088 -0.04779 -0.04145
v -0.94230 -0.00583 0.23405
v -0.94230 -0.47272 0.23405
v -0.96663 -0.47272 0.09611
v -1.01394 -0.00583 -0.03778
v -1.01387 -0.04779 -0.03739
v -0.98962 -0.08710 0.10016
v -0.96529 -0.00583 0.23810
v -0.96529 -0.47272 0.23810
v -0.98962 -0.47272 0.10016
# 36 verticies
vn -0.17364 -0.00929 -0.98477
vn -0.04705 -0.96260 -0.26681
vn -0.17365 0.00000 -0.98481
vn 0.00000 -1.00000 0.00000
vn 0.17365 0.00000 0.98481
vn 0.00000 1.00000 0.00000
vn 0.98481 -0.00000 -0.17365
vn 0.98481 -0.00000 -0.17365
vn 0.98481 -0.00000 -0.17365
vn 0.98481 0.00000 -0.17365
vn 0.98481 0.00000 -0.17365
vn -0.98481 0.00000 0.17365
vn -0.98481 0.00000 0.17365
vn -0.98481 0.00000 0.17365
vn -0.98481 -0.00000 0.17365
vn -0.98481 0.00000 0.17365
# 16 normals
f  37//17 38//17 39//17
f  37//17 39//17 40//17
f  41//18 42//18 43//18
f  41//18 43//18 44//18
f  45//19 46//19 47//19
f  45//19 47//19 48//19
f  49//20 50//20 51//20
f  49//20 51//20 52//20
f  53//21 54//21 55//21
f  53//21 55//21 56//21
f  57//22 58//22 59//22
f  57//22 59//22 60//22
f  61//23 62//24 63//25
f  64//26 62//24 61//23
f  65//27 62//24 64//26
f  65//27 66//27 62//24
f  67//28 68//29 69//30
f  70//31 67//28 69//30
f  71//32 70//31 69//30
f  71//32 69//30 72//32
# object object #7
g object__7
v 0.91515 -0.50598 0.22851
v 0.91515 -0.50598 0.25032
v -0.95241 -0.50598 0.25032
v -0.95241 -0.50598 0.22851
v 0.89709 -0.28517 0.20286
v 0.89709 -0.28920 0.20681
v -0.93362 -0.28920 0.20681
v -0.93362 -0.28517 0.20286
v 0.89709 -0.29375 0.20905
v -0.93362 -0.29375 0.20905
v 0.89709 -0.29865 0.21014
v -0.93362 -0.29865 0.21014
v 0.89709 -0.30372 0.21066
v -0.93362 -0.30372 0.21066
v 0.89709 -0.50598 0.22851
v -0.93362 -0.50598 0.22851
v 0.91515 -0.50598 0.25032
v 0.91515 -0.24026 0.23644
v -0.95241 -0.24026 0.23644
v -0.95241 -0.50598 0.25032
# 20 verticies
vn 0.00000 -1.00000 0.00000
vn 0.00000 -0.70043 -0.71372
vn 0.00000 -0.53374 -0.84565
vn 0.00000 -0.62107 -0.78375
vn 0.00000 -0.29406 -0.95579
vn 0.00000 -0.36911 -0.92939
vn -0.00000 -0.14085 -0.99003
vn 0.00000 -0.17945 -0.98377
vn -0.00000 -0.09261 -0.99570
vn -0.00000 -0.09738 -0.99525
vn 0.00000 -0.08790 -0.99613
vn -0.00000 -0.08789 -0.99613
vn 0.00000 0.05217 0.99864
# 13 normals
f  73//33 74//33 75//33
f  73//33 75//33 76//33
f  77//34 78//35 79//36
f  77//34 79//36 80//34
f  78//35 81//37 82//38
f  78//35 82//38 79//36
f  81//37 83//39 84//40
f  81//37 84//40 82//38
f  83//39 85//41 86//42
f  83//39 86//42 84//40
f  85//41 87//43 88//44
f  85//41 88//44 86//42
f  89//45 90//45 91//45
f  89//45 91//45 92//45
# object object #8
g object__8
v 0.83194 -0.24452 0.20895
v 0.83194 -0.23436 0.15084
v -0.88622 -0.23436 0.15084
v -0.88622 -0.24452 0.20895
v 0.83194 -0.22580 0.11576
v -0.88622 -0.22580 0.11576
v 0.83194 -0.22240 0.08793
v -0.88622 -0.22240 0.08793
v 0.83194 -0.22122 0.07239
v -0.88622 -0.22122 0.07239
v 0.83194 -0.21508 0.04337
v -0.88622 -0.21508 0.04337
v 0.83194 -0.21066 0.02681
v -0.88622 -0.21066 0.02681
v 0.83194 -0.20678 0.01947
v -0.88622 -0.20678 0.01947
v 0.83194 -0.20224 0.01583
v -0.88622 -0.20224 0.01583
v 0.83194 -0.25498 0.26914
v -0.88622 -0.25498 0.26914
v 0.83194 -0.20224 0.01583
v 0.83194 -0.19730 0.01456
v -0.88622 -0.19730 0.01456
v -0.88622 -0.20224 0.01583
v 0.83194 -0.19220 0.01433
v -0.88622 -0.19220 0.01433
v 0.83194 -0.18722 0.01382
v -0.88622 -0.18722 0.01382
v 0.83194 -0.18259 0.01171
v -0.88622 -0.18259 0.01171
v 0.83194 -0.18259 0.01171
v 0.83194 -0.17857 0.00667
v -0.88622 -0.17857 0.00667
v -0.88622 -0.18259 0.01171
v 0.83194 -0.17642 -0.00012
v -0.88622 -0.17642 -0.00012
v 0.83194 -0.17693 -0.00633
v -0.88622 -0.17693 -0.00633
v 0.83194 -0.17972 -0.01157
v -0.88622 -0.17972 -0.01157
v 0.83194 -0.17972 -0.01157
v 0.83194 -0.18438 -0.01545
v -0.88622 -0.18438 -0.01545
v -0.88622 -0.17972 -0.01157
v 0.83194 -0.19051 -0.01757
v -0.88622 -0.19051 -0.01757
v 0.83194 -0.19773 -0.01753
v -0.88622 -0.19773 -0.01753
v 0.83194 -0.20563 -0.01495
v -0.88622 -0.20563 -0.01495
v 0.83194 -0.21278 -0.01095
v -0.88622 -0.21278 -0.01095
v 0.83194 -0.21278 -0.01095
v 0.83194 -0.21822 -0.00691
v -0.88622 -0.21822 -0.00691
v -0.88622 -0.21278 -0.01095
v 0.83194 -0.22222 -0.00286
v -0.88622 -0.22222 -0.00286
v 0.83194 -0.22509 0.00122
v -0.88622 -0.22509 0.00122
v 0.83194 -0.22709 0.00531
v -0.88622 -0.22709 0.00531
v 0.83194 -0.22853 0.00940
v -0.88622 -0.22853 0.00940
v 0.83194 -0.22967 0.01351
v -0.88622 -0.22967 0.01351
v 0.83194 -0.27546 0.20001
v -0.88622 -0.27546 0.20001
v 0.83194 -0.28008 0.21175
v -0.88622 -0.28008 0.21175
v 0.83194 -0.28482 0.21991
v -0.88622 -0.28482 0.21991
v 0.83194 -0.28966 0.22508
v -0.88622 -0.28966 0.22508
# 74 verticies
vn 0.00000 0.98511 0.17192
vn 0.00000 0.97650 0.21553
vn 0.00000 0.98101 0.19398
vn 0.00000 0.98518 0.17152
vn 0.00000 0.98710 0.16009
vn 0.00000 0.98006 0.19872
vn 0.00000 0.99585 0.09105
vn 0.00000 0.99435 0.10618
vn 0.00000 0.98652 0.16364
vn 0.00000 0.99279 0.11984
vn 0.00000 0.97053 0.24099
vn 0.00000 0.97458 0.22405
vn 0.00000 0.91674 0.39949
vn 0.00000 0.94419 0.32940
vn 0.00000 0.72561 0.68811
vn 0.00000 0.81325 0.58191
vn 0.00000 0.62619 0.77967
vn 0.00000 0.98525 0.17111
vn 0.00000 0.24932 0.96842
vn 0.00000 0.11329 0.99356
vn 0.00000 0.18187 0.98332
vn 0.00000 0.08221 0.99661
vn 0.00000 0.06336 0.99799
vn 0.00000 0.31396 0.94943
vn 0.00000 0.20810 0.97811
vn 0.00000 0.41492 0.90986
vn 0.00000 0.78233 0.62286
vn 0.00000 0.90964 0.41540
vn 0.00000 0.85184 0.52380
vn 0.00000 0.99891 0.04669
vn 0.00000 0.98418 0.17717
vn 0.00000 0.93798 -0.34669
vn 0.00000 0.97655 -0.21530
vn 0.00000 0.88301 -0.46936
vn 0.00000 0.63951 -0.76878
vn 0.00000 0.43695 -0.89949
vn 0.00000 0.54293 -0.83978
vn 0.00000 0.10676 -0.99428
vn 0.00000 0.21855 -0.97583
vn 0.00000 -0.21104 -0.97748
vn 0.00000 -0.10803 -0.99415
vn 0.00000 -0.43090 -0.90240
vn 0.00000 -0.37145 -0.92845
vn 0.00000 -0.48830 -0.87268
vn 0.00000 -0.59562 -0.80326
vn 0.00000 -0.67447 -0.73830
vn 0.00000 -0.63583 -0.77183
vn 0.00000 -0.78499 -0.61951
vn 0.00000 -0.74923 -0.66231
vn 0.00000 -0.87366 -0.48654
vn 0.00000 -0.84705 -0.53152
vn 0.00000 -0.93008 -0.36735
vn 0.00000 -0.91467 -0.40421
vn -0.00000 -0.95710 -0.28975
vn 0.00000 -0.95076 -0.30993
vn 0.00000 -0.96856 -0.24879
vn 0.00000 -0.96584 -0.25914
vn -0.00000 -0.94591 -0.32442
vn -0.00000 -0.95951 -0.28166
vn 0.00000 -0.88876 -0.45838
vn -0.00000 -0.91078 -0.41288
vn 0.00000 -0.77925 -0.62672
vn 0.00000 -0.82434 -0.56609
vn 0.00000 -0.72999 -0.68346
# 64 normals
f  93//46 94//47 95//48
f  93//46 95//48 96//49
f  94//47 97//50 98//51
f  94//47 98//51 95//48
f  97//50 99//52 100//53
f  97//50 100//53 98//51
f  99//52 101//54 102//55
f  99//52 102//55 100//53
f  101//54 103//56 104//57
f  101//54 104//57 102//55
f  103//56 105//58 106//59
f  103//56 106//59 104//57
f  105//58 107//60 108//61
f  105//58 108//61 106//59
f  107//60 109//62 110//62
f  107//60 110//62 108//61
f  111//63 93//46 96//49
f  111//63 96//49 112//63
f  113//64 114//65 115//66
f  113//64 115//66 116//64
f  114//65 117//67 118//68
f  114//65 118//68 115//66
f  117//67 119//69 120//70
f  117//67 120//70 118//68
f  119//69 121//71 122//71
f  119//69 122//71 120//70
f  123//72 124//73 125//74
f  123//72 125//74 126//72
f  124//73 127//75 128//76
f  124//73 128//76 125//74
f  127//75 129//77 130//78
f  127//75 130//78 128//76
f  129//77 131//79 132//79
f  129//77 132//79 130//78
f  133//80 134//81 135//82
f  133//80 135//82 136//80
f  134//81 137//83 138//84
f  134//81 138//84 135//82
f  137//83 139//85 140//86
f  137//83 140//86 138//84
f  139//85 141//87 142//88
f  139//85 142//88 140//86
f  141//87 143//89 144//89
f  141//87 144//89 142//88
f  145//90 146//91 147//92
f  145//90 147//92 148//90
f  146//91 149//93 150//94
f  146//91 150//94 147//92
f  149//93 151//95 152//96
f  149//93 152//96 150//94
f  151//95 153//97 154//98
f  151//95 154//98 152//96
f  153//97 155//99 156//100
f  153//97 156//100 154//98
f  155//99 157//101 158//102
f  155//99 158//102 156//100
f  157//101 159//103 160//104
f  157//101 160//104 158//102
f  159//103 161//105 162//106
f  159//103 162//106 160//104
f  161//105 163//107 164//108
f  161//105 164//108 162//106
f  163//107 165//109 166//109
f  163//107 166//109 164//108
